<?xml version="1.0" encoding="UTF-8"?>
<svg width="100px" height="63px" viewBox="0 0 100 63" version="1.1" xmlns="http://www.w3.org/2000/svg" xmlns:xlink="http://www.w3.org/1999/xlink">
    <!-- Generator: Sketch 50.2 (55047) - http://www.bohemiancoding.com/sketch -->
    <title>Full Logo</title>
    <desc>Created with Sketch.</desc>
    <defs></defs>
    <g id="Tablet" stroke="none" stroke-width="1" fill="none" fill-rule="evenodd">
        <g id="Homepage-768" transform="translate(-43.000000, -7827.000000)" fill="#105D45">
            <g id="Footer" transform="translate(30.000000, 7827.000000)">
                <g id="Full-Logo" transform="translate(13.000000, 0.000000)">
                    <g id="Group">
                        <path d="M74.9632153,11.2437997 C74.7201635,10.5586747 74.2066303,10.4905739 73.7320618,10.4337486 C72.5740236,10.2911932 71.3969119,10.2400952 70.2543143,9.8547571 C70.2084469,10.4561207 70.1983651,10.9912628 69.9237057,11.5151293 C69.7079927,11.9001094 70.2029973,11.8070412 70.3351499,11.812679 C71.2583106,11.843821 72.177475,11.7227429 73.0662125,11.4902514 C73.6683924,11.3312301 74.2447775,11.1595014 74.9632153,11.2437997" id="Fill-1"></path>
                        <path d="M33.462307,6.24988636 C31.9579473,5.61102699 30.9197094,4.68428267 30.2275204,3.23313494 C30.8639419,3.32620312 31.3215259,3.67968324 31.9159855,3.53990199 C30.8639419,2.6034929 30.2057221,1.504125 29.8469573,0.0232670455 C30.750772,0.997261364 31.7317893,1.5403679 32.7500454,2.03103409 C34.8459582,3.04091335 37.0554042,3.69194318 39.3039055,4.15773153 L39.302634,4.15209375 L39.3039055,4.15773153 C39.8161671,4.2556321 40.3217075,4.34870028 40.8255223,4.43604119 C41.6819255,4.49071875 42.4948229,4.57018466 43.226158,4.65895739 C46.2620345,5.13387358 48.4281562,5.74427557 49.9413261,6.59334375 L49.9545867,6.60336648 C50.2075386,6.74672727 50.451317,6.90879119 50.6561308,7.0543892 C51.5290645,7.69315909 52.1029973,8.4608821 52.4485922,9.37545597 C52.5398728,9.61752273 52.5898274,9.86003693 52.5935513,10.1121264 C52.6566757,12.8195156 53.4277929,15.3315511 54.6167121,17.746223 L54.9594914,18.3849929 L54.506812,17.9305696 C53.040327,16.0512188 52.2914623,13.863848 51.7315168,11.5969219 C51.4653951,10.5289645 51.3364214,9.38941619 50.4422343,8.56576278 C50.3601272,8.49775142 50.242416,8.39743466 50.1626703,8.33855114 C48.3673025,6.91711364 45.3105359,5.86490625 39.6010899,6.78252273 C38.3336058,6.95908381 37.075931,7.15175284 35.8065395,7.31650142 C35.3466848,7.37368466 35.315168,7.56116335 35.5099001,7.90855824 C35.9968211,8.75628409 36.6318801,9.46682386 37.4315168,10.0304233 C39.2963669,11.3744531 41.4228883,11.9923722 43.6705722,12.2955597 C44.0324251,12.3546222 44.2461399,12.411358 44.2821072,12.8449304 C44.4496821,14.9474659 44.7850136,17.0247656 45.441871,19.033875 C46.0149864,20.7769347 46.9127157,22.5444247 48.7247048,23.4637415 C48.0398728,23.3672727 47.9535876,23.3536705 47.6002725,23.1805994 C46.8573115,22.8306094 46.3541326,22.1909446 45.8800182,21.5468949 C44.7025431,19.9514915 43.8798365,18.1765739 43.2230699,16.3313182 C42.7466848,14.9885412 42.248683,13.7204872 40.4938238,13.6060313 C40.5647593,13.4705455 40.5811989,13.3976122 40.6255223,13.348304 C40.8313351,13.1651207 41.0504087,12.9921392 41.2731153,12.8060028 C37.2110808,11.835946 34.0871935,9.52704972 31.4896458,6.24505398 C32.1801998,6.31145455 32.7651226,6.44873011 33.462307,6.24988636" id="Fill-2"></path>
                        <path d="M47.5603996,31.7300753 C50.1766576,30.6411776 53.7066303,28.3925966 54.5063579,27.8757102 C56.253406,26.5997813 57.9032698,25.215929 59.3233424,23.5808821 C60.9603996,21.6901662 62.3015441,19.6220838 62.9677566,17.1860241 C63.0372389,16.9089673 63.1871026,16.6188452 62.9776567,16.3204006 C62.4713896,15.5649375 61.0485922,15.403679 60.3496821,16.0206136 C59.4564033,16.8119616 58.6348774,17.3555156 57.3986376,18.00225 L56.4432334,18.3880355 C56.6925522,18.250402 56.969119,18.0018026 57.099455,17.9314645 C58.1730245,17.2432969 59.1067212,16.3977188 59.961762,15.4605043 C61.3782925,13.9425085 62.5757493,12.2641491 63.7847411,10.5888324 C64.9468665,8.98125852 66.9564033,8.23367045 68.6135332,8.76415909 C70.1080836,9.2460554 70.4568574,10.7754162 69.3133515,11.8285185 C68.7420527,12.3572173 68.0412352,12.6979901 67.3182561,12.9842642 C65.6366939,13.6331463 64.5831063,14.7866548 64.071208,16.5034943 C62.5766576,21.3991491 59.3642144,24.9241065 55.2038147,27.6768665 L55.2093551,27.6760611 C50.3119891,30.8640938 47.5603996,31.7300753 47.5603996,31.7300753" id="Fill-3"></path>
                        <path d="M19.4097184,60.6943253 C19.4097184,61.665277 19.4097184,62.1882486 19.5713896,62.3248082 C19.7021798,62.4388168 19.9024523,62.4917045 20.5029064,62.4917045 C20.9108992,62.4917045 21.2111717,62.4845455 21.4036331,62.2796165 C21.4959128,62.1810895 21.5883742,61.9681065 21.6039055,61.8245668 C21.6114441,61.7560185 21.6269755,61.7104688 21.6883742,61.7104688 C21.7425068,61.7104688 21.7500454,61.7484119 21.7500454,61.8393324 C21.7500454,61.9230043 21.6960945,62.4917045 21.6345141,62.7118466 C21.5883742,62.8786534 21.5499546,62.9167756 21.1495005,62.9167756 C20.5951862,62.9167756 20.1949137,62.9010256 19.8485922,62.8938665 C19.5019982,62.8786534 19.2247956,62.8710469 18.9092643,62.8710469 C18.8245232,62.8710469 18.6551317,62.8710469 18.4703906,62.8786534 C18.2934605,62.8786534 18.093188,62.8938665 17.9391462,62.8938665 C17.8391462,62.8938665 17.7851953,62.8710469 17.7851953,62.8182486 C17.7851953,62.779858 17.8160763,62.7570384 17.9085377,62.7570384 C18.0237965,62.7570384 18.1162579,62.7422727 18.1854678,62.7270597 C18.3396004,62.6966335 18.37802,62.5297372 18.4087193,62.3095952 C18.4473206,61.9913736 18.4473206,61.3918892 18.4473206,60.6943253 L18.4473206,59.3590653 C18.4473206,58.2060043 18.4473206,57.9939162 18.4317893,57.751402 C18.4165304,57.4928693 18.3548592,57.3720597 18.1009991,57.3187244 C18.0393279,57.3035114 17.9468665,57.2959943 17.8468665,57.2959943 C17.7621253,57.2959943 17.7159855,57.2807813 17.7159855,57.227983 C17.7159855,57.1747372 17.7699364,57.1595241 17.8851953,57.1595241 C18.247139,57.1595241 18.7320618,57.1823438 18.9400545,57.1823438 C19.1247956,57.1823438 19.686921,57.1595241 19.9871026,57.1595241 C20.0949137,57.1595241 20.1487738,57.1747372 20.1487738,57.227983 C20.1487738,57.2807813 20.1024523,57.2959943 20.0101726,57.2959943 C19.9255223,57.2959943 19.8021798,57.3035114 19.7099909,57.3187244 C19.5019982,57.3563097 19.4405086,57.4857102 19.4249773,57.751402 C19.4097184,57.9939162 19.4097184,58.2060043 19.4097184,59.3590653 L19.4097184,60.6943253" id="Fill-4"></path>
                        <path d="M25.7673025,60.9064134 C25.7980926,60.9064134 25.8059037,60.8911108 25.7980926,60.8682912 L25.1590372,59.2526634 C25.151317,59.2298438 25.1437784,59.1922585 25.128247,59.1922585 C25.1051771,59.1922585 25.0974569,59.2298438 25.0899183,59.2526634 L24.4355132,60.8611321 C24.4199818,60.8911108 24.4355132,60.9064134 24.4585831,60.9064134 L25.7673025,60.9064134 Z M24.3199818,61.2630256 C24.2814714,61.2630256 24.273842,61.2706321 24.2583106,61.3085753 L23.8964578,62.1810895 C23.8273388,62.3400213 23.7964578,62.4993111 23.7964578,62.5753764 C23.7964578,62.689027 23.8580381,62.7570384 24.0658492,62.7570384 L24.1659401,62.7570384 C24.2505904,62.7570384 24.2661217,62.7874645 24.2661217,62.8254972 C24.2661217,62.8786534 24.2275204,62.893956 24.1584015,62.893956 C23.935059,62.893956 23.6192552,62.8710469 23.4038147,62.8710469 C23.3346049,62.8710469 22.9726612,62.893956 22.6186194,62.893956 C22.5338783,62.893956 22.495277,62.8786534 22.495277,62.8254972 C22.495277,62.7874645 22.5185286,62.7570384 22.5723887,62.7570384 C22.6338783,62.7570384 22.71099,62.7498793 22.7723887,62.7498793 C23.0803815,62.7042401 23.1960036,62.5069176 23.3346049,62.1810895 L25.1051771,58.1532955 C25.1821072,57.9710966 25.2360581,57.8955682 25.3054496,57.8955682 C25.4054496,57.8955682 25.4362398,57.955973 25.5054496,58.1000497 C25.6673025,58.4566619 26.7989101,61.0660611 27.2301544,62.0442614 C27.4918256,62.6285327 27.684287,62.7118466 27.8073569,62.7342188 C27.9076294,62.7498793 27.9845595,62.7570384 28.0614896,62.7570384 C28.1231608,62.7570384 28.153951,62.779858 28.153951,62.8254972 C28.153951,62.8786534 28.1154405,62.893956 27.8612171,62.893956 C27.6226158,62.893956 27.1299728,62.893956 26.5603088,62.8786534 C26.4370572,62.8710469 26.3600363,62.8710469 26.3600363,62.8254972 C26.3600363,62.7874645 26.3755677,62.7650923 26.4446866,62.7570384 C26.4908265,62.7498793 26.5372389,62.689027 26.5063579,62.6133196 L25.9829246,61.3085753 C25.9675749,61.2706321 25.9442325,61.2630256 25.9137148,61.2630256 L24.3199818,61.2630256 Z" id="Fill-5"></path>
                        <path d="M30.7007266,60.1708168 L30.7315168,60.1708168 C30.9625795,59.9283026 31.9480472,58.9721165 32.1480472,58.7524219 C32.3405086,58.5398864 32.486921,58.3882031 32.486921,58.2744631 C32.486921,58.2060043 32.45604,58.160902 32.3943688,58.1452415 C32.33297,58.1304759 32.302089,58.1148153 32.302089,58.0772301 C32.302089,58.0319489 32.3405086,58.0162884 32.4099001,58.0162884 C32.55604,58.0162884 32.9257039,58.0319489 33.110445,58.0319489 C33.3184378,58.0319489 33.6956403,58.0162884 33.9033606,58.0162884 C33.9728429,58.0162884 34.0188919,58.0319489 34.0188919,58.0772301 C34.0188919,58.1228693 33.9803815,58.1452415 33.9188919,58.1452415 C33.8187103,58.1452415 33.6493188,58.1760256 33.5262489,58.2212173 C33.3106267,58.2973722 33.0951862,58.4337528 32.8101726,58.6995341 C32.5946412,58.8959616 31.5861944,59.8374716 31.3781108,60.0723793 C31.6169846,60.3757457 32.9487738,61.7408054 33.2103542,61.983767 C33.5108992,62.2491009 33.7725704,62.5297372 34.1344233,62.6741719 C34.3343324,62.7570384 34.4730245,62.7570384 34.5502271,62.7570384 C34.6040872,62.7570384 34.6425068,62.7874645 34.6425068,62.8254972 C34.6425068,62.8710469 34.6040872,62.8938665 34.4808356,62.8938665 L33.8881017,62.8938665 C33.6878292,62.8938665 33.5647593,62.8938665 33.4184378,62.8786534 C33.0565849,62.8482273 32.8332425,62.7117571 32.5407811,62.4616364 C32.2483197,62.2106207 30.947139,60.7242145 30.8007266,60.527429 L30.7315168,60.4360611 L30.7007266,60.4360611 L30.7007266,61.0205114 C30.7007266,61.6120312 30.7007266,62.1198793 30.7162579,62.4004261 C30.7315168,62.582983 30.793188,62.7041506 30.9625795,62.7341293 C31.0548592,62.7498793 31.2089918,62.7570384 31.2934605,62.7570384 C31.3475023,62.7570384 31.3859219,62.7955185 31.3859219,62.8254972 C31.3859219,62.8710469 31.3320618,62.8938665 31.2551317,62.8938665 C30.8779292,62.8938665 30.3927339,62.8710469 30.2235241,62.8710469 C30.0693915,62.8710469 29.6383288,62.8938665 29.3689373,62.8938665 C29.2841962,62.8938665 29.2380563,62.8710469 29.2380563,62.8254972 C29.2380563,62.7955185 29.2612171,62.7570384 29.3458674,62.7570384 C29.4458674,62.7570384 29.5227975,62.7498793 29.5844687,62.7341293 C29.7229791,62.7041506 29.7613987,62.582983 29.7847411,62.393625 C29.8152589,62.1198793 29.8152589,61.6120312 29.8152589,61.0205114 L29.8152589,59.8826634 C29.8152589,58.9040156 29.8152589,58.7224432 29.8077203,58.5170668 C29.7922797,58.2973722 29.7307902,58.2288239 29.5150772,58.1680611 C29.4612171,58.1532955 29.3458674,58.1452415 29.2455949,58.1452415 C29.1764759,58.1452415 29.1303361,58.1228693 29.1303361,58.0772301 C29.1303361,58.0319489 29.1841962,58.0162884 29.2841962,58.0162884 C29.6383288,58.0162884 30.0693915,58.0319489 30.2310627,58.0319489 C30.3927339,58.0319489 30.8779292,58.0162884 31.1012716,58.0162884 C31.2011807,58.0162884 31.2473206,58.0319489 31.2473206,58.0772301 C31.2473206,58.1228693 31.2089918,58.1452415 31.1550409,58.1452415 C31.0856494,58.1452415 31.0473206,58.1532955 30.9625795,58.1680611 C30.7777475,58.1988452 30.7237965,58.2897656 30.7084469,58.5170668 C30.7007266,58.7224432 30.7007266,58.9040156 30.7007266,59.8826634 L30.7007266,60.1708168" id="Fill-6"></path>
                        <path d="M36.0112625,59.8826634 C36.0112625,58.9041051 36.0112625,58.7224432 36.0037239,58.5170668 C35.9881926,58.2973722 35.9267938,58.2289134 35.71099,58.1680611 C35.6571299,58.1532955 35.541871,58.1452415 35.4415985,58.1452415 C35.3723887,58.1452415 35.3262489,58.1228693 35.3262489,58.0772301 C35.3262489,58.0320384 35.3801998,58.0163778 35.4801998,58.0163778 C35.8343324,58.0163778 36.2653951,58.0320384 36.4578565,58.0320384 C36.6733878,58.0320384 38.1745686,58.0391974 38.3056312,58.0320384 C38.4287012,58.0239844 38.5364214,58.0010753 38.5903724,57.9940057 C38.6289737,57.9863097 38.6673025,57.9634901 38.6981835,57.9634901 C38.7366939,57.9634901 38.744505,57.9940057 38.744505,58.0239844 C38.744505,58.0696236 38.7059037,58.1452415 38.6906449,58.4414489 C38.6828338,58.5099077 38.6673025,58.7904545 38.6519528,58.8665199 C38.6442325,58.8959616 38.6289737,58.9721165 38.5751135,58.9721165 C38.5288828,58.9721165 38.5211626,58.9421378 38.5211626,58.8893395 C38.5211626,58.8432528 38.5134423,58.7296023 38.4748411,58.6534474 C38.4209809,58.5398864 38.3671208,58.4485185 38.0284287,58.4185398 C37.9129882,58.4034162 37.1046322,58.3882031 36.9661217,58.3882031 C36.9352407,58.3882031 36.9197094,58.4109332 36.9197094,58.4485185 L36.9197094,60.0419531 C36.9197094,60.0795384 36.9275204,60.1099645 36.9661217,60.1099645 C37.1199818,60.1099645 37.9976385,60.1099645 38.1514986,60.0951989 C38.3131698,60.0795384 38.4056312,60.0567188 38.4748411,59.9963139 C38.5288828,59.9510327 38.5520436,59.9130895 38.5828338,59.9130895 C38.6134423,59.9130895 38.6366939,59.9430682 38.6366939,59.9810114 C38.6366939,60.0191335 38.6211626,60.1251776 38.5828338,60.4518111 C38.5673025,60.5802273 38.5520436,60.8379545 38.5520436,60.8840412 C38.5520436,60.9368395 38.5442325,61.0276705 38.4825613,61.0276705 C38.4365123,61.0276705 38.4209809,61.0048509 38.4209809,60.9748722 C38.4134423,60.9064134 38.4134423,60.8231889 38.397911,60.739517 C38.3594914,60.6106534 38.2748411,60.5122159 38.0207084,60.4893963 C37.8976385,60.4746307 37.1277021,60.4584332 36.9583106,60.4584332 C36.9275204,60.4584332 36.9197094,60.4893963 36.9197094,60.527429 L36.9197094,61.043331 C36.9197094,61.2630256 36.9121708,61.8089063 36.9197094,61.9986222 C36.9352407,62.4389063 37.1430518,62.5373438 37.8359673,62.5373438 C38.0128974,62.5373438 38.297911,62.5297372 38.4748411,62.4536719 C38.6442325,62.3776065 38.7214351,62.2415838 38.7675749,61.9757131 C38.7828338,61.9077912 38.7983651,61.8773651 38.844505,61.8773651 C38.8983651,61.8773651 38.9061762,61.9609474 38.9061762,62.0290483 C38.9061762,62.173125 38.8522252,62.6133196 38.813624,62.7422727 C38.7675749,62.909169 38.7059037,62.909169 38.4517711,62.909169 C37.9437784,62.909169 37.5357856,62.9011151 37.204723,62.8863494 C36.8736603,62.8787429 36.6195277,62.8711364 36.4195277,62.8711364 C36.3423252,62.8711364 36.1961853,62.8787429 36.0345141,62.8787429 C35.8729337,62.8863494 35.7034514,62.893956 35.5648501,62.893956 C35.4801998,62.893956 35.4340599,62.8711364 35.4340599,62.8254972 C35.4340599,62.7955185 35.4571299,62.7570384 35.541871,62.7570384 C35.6417802,62.7570384 35.7188011,62.7498793 35.7803815,62.7342188 C35.9189827,62.7042401 35.9573115,62.582983 35.980654,62.393625 C36.0112625,62.1198793 36.0112625,61.6120313 36.0112625,61.0205114 L36.0112625,59.8826634" id="Fill-7"></path>
                        <path d="M49.1276113,60.1708168 C49.1276113,58.4713381 48.1344233,57.4172514 46.8719346,57.4172514 C45.9868302,57.4172514 44.9782016,57.9022798 44.9782016,59.7912955 C44.9782016,61.3694276 45.8633061,62.6205682 47.3415077,62.6205682 C47.8805631,62.6205682 49.1276113,62.3628409 49.1276113,60.1708168 M43.9158038,60.0266506 C43.9158038,58.7296023 44.7857402,57.0530327 47.0953678,57.0530327 C49.0122616,57.0530327 50.2057221,58.1532955 50.2057221,59.8902699 C50.2057221,61.6272443 48.9736603,63 47.0181653,63 C44.8088102,63 43.9158038,61.3694276 43.9158038,60.0266506" id="Fill-8"></path>
                        <path d="M52.7669391,62.2796165 C52.0975477,61.7256818 51.9200727,60.9972443 51.9200727,60.3757457 C51.9200727,59.9354616 52.0663034,59.1770455 52.7129882,58.6083452 C53.2056312,58.1832741 53.8524069,57.9250994 54.8614896,57.9250994 C55.284287,57.9250994 55.5386013,57.955973 55.8469573,57.9939162 C56.1003633,58.0320384 56.3237965,58.0772301 56.524069,58.1000497 C56.6012716,58.1076562 56.6244323,58.1376349 56.6244323,58.1760256 C56.6244323,58.2288239 56.6084469,58.3045313 56.5930064,58.5327273 C56.57802,58.7448153 56.57802,59.1013381 56.5698456,59.2298438 C56.5625795,59.3210327 56.5395095,59.389581 56.4777475,59.389581 C56.4237057,59.389581 56.4087193,59.3367827 56.4087193,59.2526634 C56.4004541,59.0481818 56.3160763,58.8204332 56.147139,58.6534474 C55.9158946,58.4337528 55.461762,58.2745526 54.8378747,58.2745526 C54.2452316,58.2745526 53.8677566,58.3805966 53.5599455,58.6383239 C53.0594914,59.0629474 52.9364214,59.6853409 52.9364214,60.3148935 C52.9364214,61.8473864 54.1376022,62.5753764 55.0458674,62.5753764 C55.6462307,62.5753764 55.9777475,62.5297372 56.246594,62.2339773 C56.362307,62.1051136 56.4545867,61.9230043 56.4777475,61.8017472 C56.493188,61.7033097 56.5086285,61.6724361 56.5625795,61.6724361 C56.6084469,61.6724361 56.6398728,61.7331989 56.6398728,61.7859972 C56.6398728,61.862152 56.5625795,62.4236037 56.493188,62.6432983 C56.462307,62.7570384 56.4318801,62.7874645 56.3160763,62.8331037 C56.0467757,62.9391477 55.530881,62.9771804 55.0921889,62.9771804 C54.1680291,62.9771804 53.3832879,62.7874645 52.7669391,62.2796165" id="Fill-9"></path>
                        <path d="M62.8737511,60.5726207 C62.8737511,59.1470668 62.0040872,58.266946 60.9108992,58.266946 C60.1562216,58.266946 59.2711172,58.661054 59.2711172,60.2540412 C59.2711172,61.5816051 60.0407811,62.6285327 61.3188011,62.6285327 C61.7960945,62.6285327 62.8737511,62.4083906 62.8737511,60.5726207 M58.2701181,60.4518111 C58.2701181,59.3515483 59.0554042,57.9250994 61.1108084,57.9250994 C62.8201635,57.9250994 63.8822888,58.8583764 63.8822888,60.3377131 C63.8822888,61.8169602 62.7892825,62.9771804 61.0417802,62.9771804 C59.0708447,62.9771804 58.2701181,61.5963707 58.2701181,60.4518111" id="Fill-10"></path>
                        <path d="M66.4909173,62.0142827 C66.5059037,62.5145241 66.5908265,62.6661179 66.7216167,62.7118466 C66.8373297,62.7498793 66.9682107,62.7570384 67.0757493,62.7570384 C67.1525886,62.7570384 67.1911898,62.7874645 67.1911898,62.8254972 C67.1911898,62.8786534 67.1294278,62.8938665 67.0372389,62.8938665 C66.5985468,62.8938665 66.2829246,62.8710469 66.1597639,62.8710469 C66.0980926,62.8710469 65.7747502,62.8938665 65.428247,62.8938665 C65.3360581,62.8938665 65.2742053,62.8862599 65.2742053,62.8254972 C65.2742053,62.7874645 65.3206176,62.7570384 65.3823797,62.7570384 C65.4745686,62.7570384 65.5976385,62.7498793 65.6898274,62.7270597 C65.8669391,62.681331 65.8900999,62.5069176 65.8978202,61.9457344 L65.9594914,58.1228693 C65.9594914,57.9939162 66.0059037,57.9022798 66.0749319,57.9022798 C66.1597639,57.9022798 66.2520436,58.0010753 66.3677566,58.1148153 C66.4523161,58.1988452 67.4682107,59.2226847 68.4535876,60.1708168 C68.9159855,60.6186179 69.8164396,61.5282699 69.9164396,61.6191903 L69.9473206,61.6191903 L69.8782925,58.7524219 C69.8701181,58.357777 69.8088102,58.2440369 69.647139,58.1832741 C69.547139,58.1452415 69.3855586,58.1452415 69.2929155,58.1452415 C69.2079927,58.1452415 69.1852861,58.1148153 69.1852861,58.0772301 C69.1852861,58.0238949 69.2547684,58.0162884 69.3546776,58.0162884 C69.708901,58.0162884 70.0708447,58.0320384 70.2165304,58.0320384 C70.2938238,58.0320384 70.5481381,58.0162884 70.8787466,58.0162884 C70.9713896,58.0162884 71.0331517,58.0238949 71.0331517,58.0772301 C71.0331517,58.1148153 70.9945504,58.1452415 70.917257,58.1452415 C70.8483197,58.1452415 70.7942779,58.1452415 70.7092643,58.1680611 C70.5249773,58.2212173 70.4708447,58.3349574 70.4631244,58.6996236 L70.3860127,62.7650923 C70.3860127,62.909169 70.3324251,62.9695739 70.2783833,62.9695739 C70.1630336,62.9695739 70.0708447,62.9010256 70.0012716,62.8331037 C69.5781108,62.4464233 68.7311535,61.6496165 68.0227066,60.9748722 C67.2837421,60.2768608 66.5676658,59.495625 66.4368756,59.3819744 L66.413624,59.3819744 L66.4909173,62.0142827" id="Fill-11"></path>
                        <path d="M73.4640327,59.8826634 C73.4640327,58.9041051 73.4640327,58.7224432 73.4559491,58.5170668 C73.4408719,58.2973722 73.3792007,58.2289134 73.1634877,58.1680611 C73.109446,58.1532955 72.9940963,58.1452415 72.8941871,58.1452415 C72.824614,58.1452415 72.7787466,58.1228693 72.7787466,58.0772301 C72.7787466,58.0320384 72.8323342,58.0163778 72.9327884,58.0163778 C73.2864668,58.0163778 73.7178928,58.0320384 73.910445,58.0320384 C74.126158,58.0320384 75.6271571,58.0391974 75.7578565,58.0320384 C75.8814714,58.0239844 75.9891008,58.0010753 76.0426885,57.9940057 C76.0812897,57.9863097 76.119891,57.9634901 76.1506812,57.9634901 C76.1892825,57.9634901 76.1965486,57.9940057 76.1965486,58.0239844 C76.1965486,58.0696236 76.1584015,58.1452415 76.1429609,58.4414489 C76.1348774,58.5099077 76.119891,58.7904545 76.1044505,58.8665199 C76.0967302,58.8959616 76.0812897,58.9721165 76.027248,58.9721165 C75.9812897,58.9721165 75.9735695,58.9421378 75.9735695,58.8893395 C75.9735695,58.8432528 75.9658492,58.7296023 75.927248,58.6534474 C75.873297,58.5398864 75.8197094,58.4485185 75.4808356,58.4185398 C75.3655767,58.4034162 74.5572207,58.3882031 74.4181653,58.3882031 C74.3877384,58.3882031 74.3722979,58.4109332 74.3722979,58.4485185 L74.3722979,60.0419531 C74.3722979,60.0795384 74.3800182,60.1099645 74.4181653,60.1099645 C74.5722071,60.1099645 75.4500454,60.1099645 75.6039964,60.0951989 C75.7655767,60.0795384 75.8583106,60.0567188 75.927248,59.9963139 C75.9812897,59.9510327 76.0039964,59.9130895 76.0354223,59.9130895 C76.0658492,59.9130895 76.08901,59.9430682 76.08901,59.9810114 C76.08901,60.0191335 76.0740236,60.1251776 76.0354223,60.4518111 C76.0199818,60.5802273 76.0039964,60.8379545 76.0039964,60.8840412 C76.0039964,60.9368395 75.9968211,61.0276705 75.9349682,61.0276705 C75.8887375,61.0276705 75.873297,61.0048509 75.873297,60.9748722 C75.8660309,60.9064134 75.8660309,60.8231889 75.8501362,60.739517 C75.8119891,60.6106534 75.7269755,60.5122159 75.4731153,60.4893963 C75.3501362,60.4746307 74.5802906,60.4584332 74.41099,60.4584332 C74.3800182,60.4584332 74.3722979,60.4893963 74.3722979,60.527429 L74.3722979,61.043331 C74.3722979,61.2630256 74.3645777,61.8089063 74.3722979,61.9986222 C74.3877384,62.4389063 74.5957312,62.5373438 75.2882834,62.5373438 C75.4654859,62.5373438 75.7501362,62.5297372 75.927248,62.4536719 C76.0967302,62.3776065 76.1733878,62.2415838 76.2197094,61.9757131 C76.2352407,61.9077912 76.2506812,61.8773651 76.2970027,61.8773651 C76.3510445,61.8773651 76.3586739,61.9609474 76.3586739,62.0290483 C76.3586739,62.173125 76.3042688,62.6133196 76.2661217,62.7422727 C76.2197094,62.909169 76.1584015,62.909169 75.9045413,62.909169 C75.3960036,62.909169 74.9881926,62.9011151 74.6571299,62.8863494 C74.3260672,62.8787429 74.071753,62.8711364 73.8719346,62.8711364 C73.7947321,62.8711364 73.6485014,62.8787429 73.4867393,62.8787429 C73.3251589,62.8863494 73.1557675,62.893956 73.0171662,62.893956 C72.9327884,62.893956 72.8864668,62.8711364 72.8864668,62.8254972 C72.8864668,62.7955185 72.9096276,62.7570384 72.9940963,62.7570384 C73.0944596,62.7570384 73.171208,62.7498793 73.2328792,62.7342188 C73.3710263,62.7042401 73.4096276,62.582983 73.4327884,62.393625 C73.4640327,62.1198793 73.4640327,61.6120313 73.4640327,61.0205114 L73.4640327,59.8826634" id="Fill-12"></path>
                        <path d="M78.6671208,59.8826634 C78.6671208,58.9041051 78.6671208,58.7224432 78.6589464,58.5170668 C78.64396,58.2973722 78.582198,58.2289134 78.366485,58.1680611 C78.3123524,58.1532955 78.1970936,58.1452415 78.0971844,58.1452415 C78.0276113,58.1452415 77.9818347,58.1228693 77.9818347,58.0772301 C77.9818347,58.0320384 78.0353315,58.0163778 78.1357856,58.0163778 C78.4894641,58.0163778 78.9208901,58.0320384 79.1135332,58.0320384 C79.3292461,58.0320384 80.8301544,58.0391974 80.9608538,58.0320384 C81.0844687,58.0239844 81.1920073,58.0010753 81.2456857,57.9940057 C81.284287,57.9863097 81.3228883,57.9634901 81.3537693,57.9634901 C81.3922797,57.9634901 81.3995459,57.9940057 81.3995459,58.0239844 C81.3995459,58.0696236 81.3614896,58.1452415 81.346049,58.4414489 C81.3378747,58.5099077 81.3228883,58.7904545 81.3074478,58.8665199 C81.2997275,58.8959616 81.284287,58.9721165 81.2301544,58.9721165 C81.184287,58.9721165 81.1765668,58.9421378 81.1765668,58.8893395 C81.1765668,58.8432528 81.1688465,58.7296023 81.1303361,58.6534474 C81.0762943,58.5398864 81.0227066,58.4485185 80.6839237,58.4185398 C80.568574,58.4034162 79.760218,58.3882031 79.6211626,58.3882031 C79.5907357,58.3882031 79.575386,58.4109332 79.575386,58.4485185 L79.575386,60.0419531 C79.575386,60.0795384 79.5830154,60.1099645 79.6211626,60.1099645 C79.7752044,60.1099645 80.6530427,60.1099645 80.8074478,60.0951989 C80.968574,60.0795384 81.0613079,60.0567187 81.1303361,59.9963139 C81.184287,59.9510327 81.2069936,59.9130895 81.2384196,59.9130895 C81.2688465,59.9130895 81.2920073,59.9430682 81.2920073,59.9810114 C81.2920073,60.0191335 81.2770209,60.1251776 81.2384196,60.4518111 C81.2229791,60.5802273 81.2069936,60.8379545 81.2069936,60.8840412 C81.2069936,60.9368395 81.1997275,61.0276705 81.1380563,61.0276705 C81.0917348,61.0276705 81.0762943,61.0048509 81.0762943,60.9748722 C81.0690282,60.9064134 81.0690282,60.8231889 81.0531335,60.739517 C81.0149864,60.6106534 80.9300636,60.5122159 80.6762035,60.4893963 C80.5531335,60.4746307 79.7833787,60.4584332 79.6138965,60.4584332 C79.5830154,60.4584332 79.575386,60.4893963 79.575386,60.527429 L79.575386,61.043331 C79.575386,61.2630256 79.5676658,61.8089062 79.575386,61.9986222 C79.5907357,62.4389062 79.7987284,62.5373437 80.4912807,62.5373437 C80.6684832,62.5373437 80.9531335,62.5297372 81.1303361,62.4536719 C81.2997275,62.3776065 81.3764759,62.2415838 81.4227066,61.9757131 C81.4381471,61.9077912 81.4535876,61.8773651 81.5,61.8773651 C81.5540418,61.8773651 81.561762,61.9609474 81.561762,62.0290483 C81.561762,62.173125 81.5072661,62.6133196 81.4695731,62.7422727 C81.4227066,62.909169 81.3614896,62.909169 81.1076294,62.909169 C80.5990009,62.909169 80.1911898,62.9011151 79.8600363,62.8863494 C79.5290645,62.8787429 79.2747502,62.8711364 79.0749319,62.8711364 C78.9977293,62.8711364 78.8514986,62.8787429 78.6898274,62.8787429 C78.5280654,62.8863494 78.3587648,62.893956 78.2202543,62.893956 C78.1357856,62.893956 78.0894641,62.8711364 78.0894641,62.8254972 C78.0894641,62.7955185 78.1126249,62.7570384 78.1970936,62.7570384 C78.297366,62.7570384 78.3742053,62.7498793 78.4359673,62.7342187 C78.5744777,62.7042401 78.6126249,62.582983 78.6357856,62.393625 C78.6671208,62.1198793 78.6671208,61.6120312 78.6671208,61.0205114 L78.6671208,59.8826634" id="Fill-13"></path>
                        <path d="M4.10735695,46.0547898 C4.10735695,46.2356463 4.14813806,46.2964091 4.27075386,46.3568139 C4.65903724,46.4777131 5.19037239,46.5178935 5.6400545,46.5178935 C6.3551317,46.5178935 6.60045413,46.4574886 6.90690282,46.2356463 C7.45876476,45.8534403 8.07166213,45.1084474 8.07166213,43.698733 C8.07166213,41.2833452 6.39600363,40.658804 5.33333333,40.658804 C4.88392371,40.658804 4.45485922,40.6789389 4.27075386,40.7191193 C4.14813806,40.7597472 4.10735695,40.8200625 4.10735695,40.9607386 L4.10735695,46.0547898 Z M1.81871026,44.7257045 C1.81871026,42.1282969 1.81871026,41.6455952 1.79809264,41.1015043 C1.75731153,40.5176804 1.59391462,40.3369134 1.02152589,40.1755653 C0.878564941,40.1354744 0.572116258,40.11525 0.306448683,40.11525 C0.122615804,40.11525 0,40.0544872 0,39.9340355 C0,39.8133153 0.143051771,39.7732244 0.40862852,39.7732244 C1.34859219,39.7732244 2.49309718,39.8133153 2.86067212,39.8133153 C3.47384196,39.8133153 5.10871935,39.7732244 5.66049046,39.7732244 C6.80490463,39.7732244 8.11271571,39.8737202 9.07311535,40.4976349 C9.58401453,40.8402869 10.3401453,41.705821 10.3401453,42.8537813 C10.3401453,44.1217457 9.60435967,45.2489446 7.84704814,46.6387926 C9.44096276,48.5716577 10.7078111,50.1220483 11.7910082,51.1892003 C12.7921889,52.175902 13.4257039,52.2559048 13.7118074,52.3163991 C13.895822,52.3565795 13.9980018,52.3565795 14.1410536,52.3565795 C14.2841054,52.3565795 14.3656676,52.4572543 14.3656676,52.5378835 C14.3656676,52.6792756 14.2430518,52.719098 14.0184378,52.719098 L12.3019074,52.719098 C11.300545,52.719098 10.8099909,52.6188707 10.3401453,52.376804 C9.56357856,51.9941506 8.88928247,51.1892003 7.88782925,49.8599361 C7.17247956,48.9340866 6.41662125,47.7860369 6.19173479,47.5246406 C6.08955495,47.4239659 5.98728429,47.403831 5.86466848,47.403831 L4.25040872,47.3635611 C4.16857402,47.3635611 4.10735695,47.403831 4.10735695,47.5045057 L4.10735695,47.745767 C4.10735695,49.3363381 4.12779292,50.6657813 4.20953678,51.3901023 C4.27075386,51.8934759 4.35258856,52.2157244 4.90426885,52.2961747 C5.16993642,52.3365341 5.5582198,52.3565795 5.78310627,52.3565795 C5.92606721,52.3565795 6.00790191,52.4572543 6.00790191,52.5378835 C6.00790191,52.6590511 5.86466848,52.719098 5.6400545,52.719098 C4.59782016,52.719098 3.10599455,52.6590511 2.84032698,52.6590511 C2.49309718,52.6590511 1.34859219,52.719098 0.633242507,52.719098 C0.40862852,52.719098 0.286012716,52.6590511 0.286012716,52.5378835 C0.286012716,52.4572543 0.347229791,52.3565795 0.572116258,52.3565795 C0.837693006,52.3565795 1.04214351,52.3365341 1.20563124,52.2961747 C1.57347866,52.2157244 1.67547684,51.8934759 1.73687557,51.3901023 C1.81871026,50.6657813 1.81871026,49.3162926 1.81871026,47.745767 L1.81871026,44.7257045 Z" id="Fill-15"></path>
                        <path d="M16.9128974,46.0298224 C16.9128974,43.8534588 16.9128974,43.4527287 16.8838329,42.9943679 C16.8548592,42.5076392 16.7386013,42.2787273 16.2589464,42.178679 C16.1427793,42.1501321 15.8957312,42.1357244 15.6923706,42.1357244 C15.5325159,42.1357244 15.4452316,42.1069091 15.4452316,42.0069503 C15.4452316,41.9064545 15.5469573,41.8779077 15.764941,41.8779077 C16.1572207,41.8779077 16.5787466,41.8924048 16.9419619,41.8924048 C17.3198002,41.9064545 17.653951,41.9213097 17.857584,41.9213097 C18.322525,41.9213097 21.2140781,41.9213097 21.4901907,41.9064545 C21.766485,41.8779077 21.9988193,41.8495398 22.1150772,41.8208139 C22.1877384,41.8063168 22.2749319,41.7634517 22.3476839,41.7634517 C22.4201635,41.7634517 22.4347866,41.8208139 22.4347866,41.8924048 C22.4347866,41.9925426 22.3620345,42.1641818 22.3186194,42.8231761 C22.3039055,42.966 22.2749319,43.5960895 22.2458674,43.7678182 C22.231426,43.8394091 22.2023615,43.9250497 22.1006358,43.9250497 C21.9988193,43.9250497 21.9697548,43.8534588 21.9697548,43.7249531 C21.9697548,43.6244574 21.9551317,43.3814957 21.8826521,43.2093196 C21.7808356,42.9515923 21.635604,42.7798636 20.9089918,42.6937756 C20.6619437,42.6653182 19.136149,42.6370398 18.8455949,42.6370398 C18.7729337,42.6370398 18.7438692,42.6797259 18.7438692,42.7798636 L18.7438692,46.4020057 C18.7438692,46.502233 18.7584923,46.5600426 18.8455949,46.5600426 C19.1651226,46.5600426 20.8364214,46.5600426 21.170663,46.5309588 C21.5194369,46.502233 21.737148,46.4593679 21.8680291,46.3160966 C21.9697548,46.2016406 22.0278837,46.1299602 22.1006358,46.1299602 C22.1587648,46.1299602 22.2023615,46.1585966 22.2023615,46.2445057 C22.2023615,46.3304148 22.1440509,46.5600426 22.0860127,47.289733 C22.0715713,47.5760966 22.0278837,48.1489134 22.0278837,48.2491406 C22.0278837,48.3635966 22.0278837,48.5211861 21.8970027,48.5211861 C21.7955495,48.5211861 21.766485,48.4638239 21.766485,48.3926804 C21.7517711,48.2491406 21.7517711,48.0630043 21.7081744,47.8768679 C21.635604,47.5904148 21.4320618,47.3757315 20.8945504,47.3183693 C20.6185286,47.289733 19.1797457,47.2755043 18.8309718,47.2755043 C18.7584923,47.2755043 18.7438692,47.3323295 18.7438692,47.419044 L18.7438692,48.549733 C18.7438692,49.0366406 18.7294278,50.3533764 18.7438692,50.7686037 C18.7729337,51.7570952 19.0054496,51.9714205 20.4876476,51.9714205 C20.8654859,51.9714205 21.4757493,51.9714205 21.8535876,51.7999602 C22.231426,51.6277841 22.4057221,51.3270128 22.5075386,50.7405043 C22.5366031,50.5825568 22.5656676,50.525642 22.6671208,50.525642 C22.7835604,50.525642 22.7835604,50.640277 22.7835604,50.7829219 C22.7835604,51.112777 22.6671208,52.0859659 22.5946412,52.3723295 C22.4928247,52.7445128 22.3620345,52.7445128 21.8099001,52.7445128 C20.7200727,52.7445128 19.9208901,52.7159659 19.2960036,52.7016477 C18.6711172,52.6729219 18.2207993,52.6590511 17.784832,52.6590511 C17.6248865,52.6590511 17.3051771,52.6590511 16.9565849,52.6729219 C16.6224342,52.6729219 16.2445958,52.7016477 15.9538601,52.7016477 C15.764941,52.7016477 15.6631244,52.6590511 15.6631244,52.5583764 C15.6631244,52.4867855 15.7215259,52.4439205 15.8957312,52.4439205 C16.1137148,52.4439205 16.2880109,52.4151946 16.4188011,52.3865582 C16.7095368,52.329375 16.7821072,52.014375 16.8401453,51.5995057 C16.9128974,50.9977841 16.9128974,49.8666477 16.9128974,48.549733 L16.9128974,46.0298224" id="Fill-17"></path>
                        <path d="M29.3520436,48.9936861 C29.3520436,48.2204148 29.2065395,47.9059517 29.0176203,47.4901875 C28.9160763,47.2611861 26.9689373,44.1112756 26.460218,43.3666406 C26.0970027,42.8370469 25.7336058,42.4791818 25.4574932,42.3215028 C25.2686649,42.2218125 25.0216167,42.1357244 24.8473206,42.1357244 C24.7311535,42.1357244 24.629337,42.1069986 24.629337,42.0069503 C24.629337,41.9213097 24.7311535,41.8779077 24.9053588,41.8779077 C25.16703,41.8779077 26.2566757,41.9213097 26.7363306,41.9213097 C27.0414169,41.9213097 27.6372389,41.8779077 28.2912807,41.8779077 C28.4364214,41.8779077 28.5091735,41.9213097 28.5091735,42.0069503 C28.5091735,42.0925909 28.4073569,42.1069986 28.1894641,42.1641818 C28.0586739,42.1930866 27.9861035,42.3074531 27.9861035,42.4219986 C27.9861035,42.536544 28.0586739,42.7086307 28.1603996,42.9088168 C28.3637602,43.3382727 30.3981835,46.789044 30.6306085,47.1895952 C30.7760218,46.8459588 32.6070845,43.6961378 32.8103542,43.2522741 C32.9555858,42.9375426 33.0137148,42.6937756 33.0137148,42.5076392 C33.0137148,42.3648153 32.9555858,42.2069574 32.7086285,42.1501321 C32.5779292,42.1213168 32.447139,42.0925909 32.447139,42.0069503 C32.447139,41.9063651 32.5196185,41.8779077 32.6941871,41.8779077 C33.1735695,41.8779077 33.6386013,41.9213097 34.0601272,41.9213097 C34.3796549,41.9213097 35.3389646,41.8779077 35.6149864,41.8779077 C35.7746594,41.8779077 35.8763851,41.9063651 35.8763851,41.9924531 C35.8763851,42.0925909 35.760218,42.1357244 35.6003633,42.1357244 C35.4551317,42.1357244 35.1791099,42.1930866 34.9610354,42.3074531 C34.6559491,42.4508139 34.4960945,42.6225426 34.1762943,43.009223 C33.6966394,43.5816818 31.6623978,46.9460966 31.4009083,47.5618679 C31.1830154,48.076875 31.1830154,48.5211861 31.1830154,48.9936861 L31.1830154,50.1672401 C31.1830154,50.3964205 31.1830154,50.9977841 31.2264305,51.5995057 C31.255495,52.014375 31.3862852,52.329375 31.8223433,52.3865582 C32.0256131,52.4151946 32.3454133,52.4439205 32.5489555,52.4439205 C32.7086285,52.4439205 32.7812897,52.4867855 32.7812897,52.5584659 C32.7812897,52.6591406 32.6651226,52.7016477 32.4762035,52.7016477 C31.5605813,52.7016477 30.6453224,52.6591406 30.2529519,52.6591406 C29.889555,52.6591406 28.9742053,52.7016477 28.4364214,52.7016477 C28.2331517,52.7016477 28.1167121,52.6729219 28.1167121,52.5584659 C28.1167121,52.4867855 28.1894641,52.4439205 28.3493188,52.4439205 C28.5525886,52.4439205 28.7271571,52.4151946 28.8580381,52.3865582 C29.1485014,52.329375 29.2792916,52.014375 29.308356,51.5995057 C29.3520436,50.9977841 29.3520436,50.3964205 29.3520436,50.1672401 L29.3520436,48.9936861" id="Fill-18"></path>
                        <path d="M39.7281562,50.7548224 C39.7572207,51.8715511 39.9461399,52.2438239 40.2366031,52.3436932 C40.4838329,52.4300497 40.7599455,52.4439205 40.9922797,52.4439205 C41.1522252,52.4439205 41.2393279,52.4730043 41.2393279,52.5583764 C41.2393279,52.6729219 41.1085377,52.7016477 40.9051771,52.7016477 C39.9605813,52.7016477 39.3793824,52.6590511 39.1032698,52.6590511 C38.9724796,52.6590511 38.2894641,52.7016477 37.5339691,52.7016477 C37.34505,52.7016477 37.2142598,52.6873295 37.2142598,52.5583764 C37.2142598,52.4730043 37.3013624,52.4439205 37.446594,52.4439205 C37.6355132,52.4439205 37.8971844,52.4300497 38.100545,52.3723295 C38.4783833,52.2577841 38.5365123,51.8430043 38.5511353,50.5973224 L38.6819255,42.1641818 C38.6819255,41.8779077 38.7254314,41.6773636 38.8709355,41.6773636 C39.0305177,41.6773636 39.1613987,41.8635 39.408356,42.1213168 C39.5829246,42.3074531 41.7914623,44.5980938 43.9131698,46.6744986 C44.9012716,47.6482244 46.862852,49.7095057 47.1099001,49.9386861 L47.1825613,49.9386861 L47.0372389,43.5100014 C47.0227066,42.6370398 46.8919164,42.3648153 46.5431426,42.2218125 C46.3251589,42.1357244 45.9763851,42.1357244 45.7729337,42.1357244 C45.5985468,42.1357244 45.5404178,42.0925909 45.5404178,42.0069503 C45.5404178,41.8924048 45.7002725,41.8779077 45.9182561,41.8779077 C46.6739328,41.8779077 47.3714805,41.9213097 47.6766576,41.9213097 C47.8365123,41.9213097 48.3887375,41.8779077 49.1008174,41.8779077 C49.2897366,41.8779077 49.435059,41.8924048 49.435059,42.0069503 C49.435059,42.0925909 49.3478656,42.1357244 49.1734787,42.1357244 C49.0281562,42.1357244 48.9118983,42.1357244 48.7375114,42.178679 C48.3306085,42.2930455 48.2143506,42.5940852 48.1998183,43.395456 L48.0399637,52.4300497 C48.0399637,52.7445128 47.9818347,52.8734659 47.8510445,52.8734659 C47.6911898,52.8734659 47.5168029,52.7159659 47.3569482,52.5583764 C46.4414169,51.6992855 44.5814714,49.8240511 43.0702997,48.3493679 C41.486376,46.8030043 39.8733878,45.0566335 39.6119891,44.7840511 L39.5683015,44.7840511 L39.7281562,50.7548224" id="Fill-19"></path>
                        <path d="M62.2379655,47.5618679 C62.2379655,44.3551321 60.3637602,42.3648153 57.9804723,42.3648153 C56.3091735,42.3648153 54.4059037,43.281 54.4059037,46.8459588 C54.4059037,49.8240511 56.0767484,52.1861932 58.8669391,52.1861932 C59.8837421,52.1861932 62.2379655,51.6992855 62.2379655,47.5618679 M52.400545,47.2898224 C52.400545,44.8418608 54.0425976,41.6773636 58.4018165,41.6773636 C62.019891,41.6773636 64.2724796,43.7537685 64.2724796,47.0320057 C64.2724796,50.3109588 61.9473206,52.9021023 58.2565849,52.9021023 C54.0862852,52.9021023 52.400545,49.8240511 52.400545,47.2898224" id="Fill-20"></path>
                        <path d="M70.5794732,48.549733 C70.5794732,50.3825497 70.5794732,51.3700568 70.8846503,51.6277841 C71.1316985,51.8430043 71.5095368,51.9426946 72.6430518,51.9426946 C73.4132607,51.9426946 73.979564,51.9284659 74.3433243,51.5423224 C74.5177112,51.3561861 74.6920981,50.9547401 74.7207084,50.6832315 C74.7351499,50.5543679 74.7647593,50.4680114 74.8810173,50.4680114 C74.9822888,50.4680114 74.9972752,50.5396023 74.9972752,50.7117784 C74.9972752,50.8693679 74.8955495,51.9426946 74.7792916,52.3584588 C74.6920981,52.6729219 74.6194369,52.7445128 73.8633061,52.7445128 C72.8174387,52.7445128 72.061762,52.7159659 71.4078111,52.7016477 C70.7538601,52.6729219 70.2306994,52.6591406 69.6353315,52.6591406 C69.4749319,52.6591406 69.1553134,52.6591406 68.8069936,52.6729219 C68.4722071,52.6729219 68.0944596,52.7016477 67.8042688,52.7016477 C67.6153497,52.7016477 67.513624,52.6591406 67.513624,52.5584659 C67.513624,52.4867855 67.5716621,52.4439205 67.7461399,52.4439205 C67.9636694,52.4439205 68.1385104,52.4151946 68.2693006,52.3865582 C68.5599455,52.329375 68.6326067,52.014375 68.6907357,51.5995057 C68.7633061,50.9977841 68.7633061,49.8666477 68.7633061,48.549733 L68.7633061,46.0298224 C68.7633061,43.8534588 68.7633061,43.4527287 68.7343324,42.9944574 C68.7048138,42.5076392 68.5885559,42.2787273 68.109446,42.1785895 C67.993188,42.1501321 67.8188011,42.1357244 67.6298819,42.1357244 C67.4694823,42.1357244 67.3828338,42.1069986 67.3828338,42.0068608 C67.3828338,41.9063651 67.4844687,41.8779077 67.7025431,41.8779077 C68.3855586,41.8779077 69.3009991,41.9212202 69.6934605,41.9212202 C70.0417802,41.9212202 71.1025431,41.8779077 71.6693915,41.8779077 C71.8728429,41.8779077 71.9745686,41.9063651 71.9745686,42.0068608 C71.9745686,42.1069986 71.8873751,42.1357244 71.7129882,42.1357244 C71.5535876,42.1357244 71.3206176,42.1501321 71.1462307,42.1785895 C70.7538601,42.2502699 70.6376022,42.4935895 70.6085377,42.9944574 C70.5794732,43.4527287 70.5794732,43.8534588 70.5794732,46.0298224 L70.5794732,48.549733" id="Fill-21"></path>
                        <path d="M80.8250681,47.6048224 C80.8250681,49.1221023 80.8396004,50.2250497 80.8542234,50.4970952 C80.8687557,50.8546023 80.8978202,51.4276875 81.0139873,51.5847401 C81.2029064,51.8567855 81.7697548,52.1575568 82.9177112,52.1575568 C84.4000908,52.1575568 85.3878292,51.8715511 86.259673,51.1270952 C87.1897366,50.3395057 87.4804723,49.0366406 87.4804723,47.5618679 C87.4804723,45.7439063 86.7101726,44.5696364 86.0852861,43.9828594 C84.7484105,42.7226804 83.0920981,42.5509517 81.9586739,42.5509517 C81.6680291,42.5509517 81.1298819,42.5940852 81.0139873,42.6509105 C80.8828338,42.7086307 80.8396004,42.7798636 80.8396004,42.9375426 C80.8250681,43.4243608 80.8250681,44.6697741 80.8250681,45.8010895 L80.8250681,47.6048224 Z M79.0089918,46.0298224 C79.0089918,43.8534588 79.0089918,43.4528182 78.979564,42.9944574 C78.9504995,42.5076392 78.8341508,42.2787273 78.3546776,42.178679 C78.2384196,42.1501321 77.9913715,42.1357244 77.7879201,42.1357244 C77.6285195,42.1357244 77.5407811,42.1069986 77.5407811,42.0069503 C77.5407811,41.9064545 77.6429609,41.8779077 77.8605813,41.8779077 C78.6312443,41.8779077 79.5462307,41.9213097 79.9532243,41.9213097 C80.4037239,41.9213097 81.3188011,41.8779077 82.1906449,41.8779077 C84.0071753,41.8779077 86.4340599,41.8779077 88.0177112,43.5100014 C88.7447775,44.2545469 89.4277021,45.4431349 89.4277021,47.1461932 C89.4277021,48.9507315 88.657584,50.3248295 87.8437784,51.1408764 C87.1752044,51.8139205 85.6639419,52.8305114 82.975931,52.8305114 C82.4526794,52.8305114 81.8569482,52.7875568 81.304723,52.7445128 C80.7520436,52.7016477 80.2438692,52.6591406 79.8805631,52.6591406 C79.7206176,52.6591406 79.4009991,52.6591406 79.0522252,52.6729219 C78.7179837,52.6729219 78.3401453,52.7016477 78.0495005,52.7016477 C77.8605813,52.7016477 77.7592189,52.6591406 77.7592189,52.5584659 C77.7592189,52.4867855 77.8174387,52.4439205 77.9913715,52.4439205 C78.2092643,52.4439205 78.3841054,52.4151946 78.5149864,52.3865582 C78.8051771,52.329375 78.8778383,52.014375 78.9358765,51.5995057 C79.0089918,50.9977841 79.0089918,49.8666477 79.0089918,48.549733 L79.0089918,46.0298224 Z" id="Fill-22"></path>
                        <path d="M92.1889192,52.4975241 C91.9028156,52.376804 91.8410536,52.2961747 91.8410536,51.9137003 C91.8410536,50.9874034 91.9227975,49.9206989 91.9436876,49.6388991 C91.9436876,49.3770554 92.0254314,49.195483 92.1680291,49.195483 C92.3315168,49.195483 92.3524069,49.3565625 92.3524069,49.4772827 C92.3524069,49.6988565 92.4141689,50.061733 92.5158946,50.3633097 C92.9037239,51.632169 94.253406,52.0545554 95.3769301,52.0545554 C96.9300636,52.0545554 97.8701181,51.0885256 97.8701181,49.8799815 C97.8701181,49.1355256 97.6857402,48.3905327 96.0926431,47.4642358 L95.0499546,46.8601875 C92.924614,45.6320455 92.2297911,44.4843537 92.2297911,42.974233 C92.2297911,40.8804673 94.2733878,39.5310682 96.7665758,39.5310682 C97.9318801,39.5310682 98.8510445,39.6923267 99.3206176,39.8133153 C99.4841054,39.8534957 99.5667575,39.9138111 99.5667575,40.0344418 C99.5667575,40.2563736 99.5040872,40.7397017 99.5040872,42.0881165 C99.5040872,42.4508139 99.4232516,42.6316705 99.2797457,42.6316705 C99.1580381,42.6316705 99.0962761,42.5311747 99.0962761,42.3301832 C99.0962761,42.1689247 99.0145322,41.6455057 98.6257947,41.2024474 C98.3605813,40.8804673 97.7883742,40.3971392 96.6230699,40.3971392 C95.3360581,40.3971392 94.1707539,41.0612344 94.1707539,42.2292401 C94.1707539,42.9944574 94.4577657,43.5982372 96.071753,44.4843537 L96.8074478,44.8874105 C99.17802,46.1752415 99.9137148,47.4844602 99.9137148,49.0348509 C99.9137148,50.3029048 99.4232516,51.3297869 98.1153497,52.2358594 C97.2570391,52.8399077 96.071753,52.9405824 95.1117166,52.9405824 C94.0690282,52.9405824 92.9654859,52.8399077 92.1889192,52.4975241" id="Fill-23"></path>
                        <path d="M71.6930064,15.1053239 C71.4669391,14.1889602 71.1270663,13.3140298 70.6851045,12.4852756 C70.8125341,12.8063608 70.9263397,13.1333523 71.0227975,13.4674134 C73.3579473,21.5514588 65.5538601,30.3049688 53.5920073,33.0191591 C41.6306994,35.7336179 30.0407811,31.3807116 27.7057221,23.2963977 C26.5027248,19.1315071 27.991099,14.7889815 31.3524977,11.1860795 C27.7455041,14.7783324 26.0368756,19.2174162 27.1117166,23.5755128 C29.1871935,31.9895923 40.8495913,36.914152 53.1600363,34.5750085 C65.4707539,32.236044 73.7683015,23.5192244 71.6930064,15.1053239" id="Fill-24"></path>
                        <path d="M47.2330609,3.79145455 L49.8574024,5.43017045 C56.4908265,4.13213778 62.8093551,5.08429688 67.2524069,7.77700994 C62.5531335,4.10752841 55.126158,2.43346449 47.2330609,3.79145455" id="Fill-25"></path>
                    </g>
                </g>
            </g>
        </g>
    </g>
</svg>